<?xml version="1.0" encoding="utf-8"?>
<!DOCTYPE svg PUBLIC "-//W3C//DTD SVG 1.1 Tiny//EN" "http://www.w3.org/Graphics/SVG/1.1/DTD/svg11-tiny.dtd">
<svg version="1.1" baseProfile="tiny" xmlns="http://www.w3.org/2000/svg" xmlns:xlink="http://www.w3.org/1999/xlink" x="0px"
	 y="0px" width="159.6px" height="159.6px" viewBox="0 0 159.6 159.6" xml:space="preserve">
<g id="Layer_1">
	<g>
		<path fill="#F1F2F2" d="M9.4,20.8h17.8V3.1h6.1V45h-6.1V26.8H9.4V45H3.4V3.1h6.1V20.8z"/>
		<path fill="#F1F2F2" d="M64.5,32.7H49.4c-1.6,3.8-3.7,8.9-5,12.4h-6.5L54.7,2.5h4.4L76,45h-6.5L64.5,32.7z M51.7,27h10.4L57,12.1
			L51.7,27z"/>
		<path fill="#F1F2F2" d="M84.2,9.1c3.7-3.8,8.8-6.2,14.5-6.2c9.6,0,17.2,6,19.6,15.5h-6c-2.2-6.3-7.4-9.5-13.6-9.5
			c-4,0-7.7,1.7-10.3,4.5c-2.6,2.8-4.3,6.5-4.3,10.8c0,4.2,1.7,7.9,4.3,10.7c2.6,2.8,6.3,4.5,10.3,4.5c6.4,0,11.8-3.7,13.9-10h5.9
			c-2.4,9.5-10.1,16-19.9,16c-5.7,0-10.9-2.4-14.5-6.2c-3.6-3.8-6-9.1-6-14.9C78.2,18.2,80.6,12.9,84.2,9.1z"/>
		<path fill="#F1F2F2" d="M131.8,3.1V45h-6V3.1H131.8z M133,22.5l14.6-19.4h7.6l-16,20.8L156.9,45H149l-16-19.4V22.5z"/>
		<path fill="#fff" d="M17.5,101.2V60H3v-1h29.9v1H18.4v41.2H17.5z"/>
		<path fill="#fff" d="M40.4,79.3h26.3V59.1h1V101h-1V80.2H40.4V101h-0.9V59.1h0.9V79.3z"/>
		<path fill="#fff" d="M77.2,100.1h22.3v0.9H76.3h-0.1V59.1h23.2V60H77.2v19.6h21.7v1H77.2V100.1z"/>
		<path fill="#FFCE00" d="M36.8,130.1c-1.7-6.8-8.2-9.2-13.5-9.2c-8.2,0-14.6,6.4-14.6,15.2c0,8.9,6.4,15.4,14.6,15.4
			c5.2,0,10.7-2.4,13.2-8.5H20.9v-6.1h22.6c-0.3,3.5-0.6,5.9-1.1,7.3v-0.1c-2.9,8-11.5,13.2-19.1,13.2c-11.8,0-20.6-8.9-20.6-21.2
			c0-12.4,9.1-21.3,20.6-21.3c8,0,17.8,4.1,20,15.3H36.8z"/>
		<path fill="#FFCE00" d="M52.1,120.8c3.8-3.9,9.2-6.4,15.1-6.4c5.9,0,11.3,2.5,15.2,6.4c3.8,3.9,6.2,9.2,6.2,15.2
			s-2.5,11.3-6.2,15.2c-3.9,4-9.2,6.4-15.2,6.4c-5.9,0-11.3-2.4-15.1-6.4c-3.8-3.9-6.2-9.2-6.2-15.2S48.3,124.7,52.1,120.8z
			 M78.1,125.2c-2.8-2.8-6.7-4.6-10.9-4.6c-4.1,0-8,1.7-10.7,4.6c-2.8,2.8-4.5,6.6-4.5,10.9s1.7,8.1,4.5,10.9
			c2.8,2.8,6.6,4.6,10.7,4.6c4.1,0,8-1.7,10.9-4.6c2.7-2.8,4.4-6.5,4.4-10.9C82.5,131.7,80.8,127.9,78.1,125.2z"/>
		<path fill="#FFCE00" d="M98.8,151h19.7v6.1H92.7v-41.9h6.1V151z"/>
		<path fill="#FFCE00" d="M136.2,115.1c13.7,0,20.6,10.5,20.6,21c0,10.5-6.9,20.9-20.6,20.9h-15.1v-41.9H136.2z M136.2,151
			c9.7,0,14.6-7.4,14.6-14.9c0-7.4-4.9-14.9-14.6-14.9h-9V151H136.2z"/>
	</g>
</g>
<g id="Objects" display="none">
	<g display="inline">
		<g>
			<path fill="#FEBC27" d="M105.2,87.1v5.7c0,0,4.1,3.3,21.9,3.3c0,0,13.6,0.4,21.9-3.5v-5.5c0,0-5.3,2.4-21.9,2.4
				C127.2,89.5,112.8,89.5,105.2,87.1z"/>
			<path fill="#ED8F00" d="M128.1,96.3c-0.6,0-1,0-1,0c-17.7,0-21.8-3.2-22-3.3l0,0V87l0.1,0c7.5,2.4,21.8,2.4,21.9,2.4
				c16.4,0,21.8-2.4,21.9-2.4l0.2-0.1v5.8l-0.1,0C142.1,96,131.3,96.3,128.1,96.3z M105.4,92.8c0.5,0.3,5.1,3.3,21.8,3.3
				c0,0,0.4,0,1,0c3.1,0,13.9-0.3,20.8-3.5v-5.3c-1,0.4-6.9,2.3-21.8,2.3c-0.1,0-14.3,0-21.8-2.4V92.8z"/>
		</g>
		<image width="224" height="39" xlink:href="87E8FCCBAE982C09.png"  transform="matrix(0.24 0 0 0.24 99.7954 86.8893)">
		</image>
		<g>
			<g>
				<ellipse fill="#FEDB61" cx="127.2" cy="87.1" rx="21.9" ry="3.6"/>
				<path fill="#ED8F00" d="M127.2,90.8c-10.8,0-22-1.4-22-3.7s11.2-3.7,22-3.7c10.8,0,22,1.4,22,3.7S138,90.8,127.2,90.8z
					 M127.2,83.6c-13.1,0-21.8,1.8-21.8,3.5c0,1.7,8.8,3.5,21.8,3.5c13,0,21.8-1.8,21.8-3.5C149,85.4,140.2,83.6,127.2,83.6z"/>
			</g>
			<g>
				<g>
					<ellipse fill="#FEBC27" cx="127.2" cy="87.1" rx="18" ry="3"/>
				</g>
				<image width="151" height="25" xlink:href="87E8FCCBAE982C0B.png"  transform="matrix(0.24 0 0 0.24 109.1288 84.1535)">
				</image>
			</g>
		</g>
	</g>
	<g display="inline">
		<g>
			<path fill="#FEBC27" d="M107.3,82.4v5.7c0,0,4.1,3.3,21.9,3.3c0,0,13.6,0.4,21.9-3.5v-5.5c0,0-5.3,2.4-21.9,2.4
				C129.3,84.8,114.9,84.8,107.3,82.4z"/>
			<path fill="#ED8F00" d="M130.2,91.5c-0.6,0-1,0-1,0c-17.7,0-21.8-3.2-22-3.3l0,0v-5.9l0.1,0c7.5,2.4,21.8,2.4,21.9,2.4
				c16.4,0,21.8-2.4,21.9-2.4l0.2-0.1V88l-0.1,0C144.2,91.3,133.4,91.5,130.2,91.5z M107.4,88c0.5,0.3,5.1,3.3,21.8,3.3
				c0,0,0.4,0,1,0c3.1,0,13.9-0.3,20.8-3.5v-5.3c-1,0.4-6.9,2.3-21.8,2.3c-0.1,0-14.3,0-21.8-2.4V88z"/>
		</g>
		<image width="224" height="39" xlink:href="87E8FCCBAE982C08.png"  transform="matrix(0.24 0 0 0.24 101.8796 82.1524)">
		</image>
		<g>
			<g>
				<ellipse fill="#FEDB61" cx="129.3" cy="82.4" rx="21.9" ry="3.6"/>
				<path fill="#ED8F00" d="M129.3,86.1c-10.8,0-22-1.4-22-3.7c0-2.3,11.2-3.7,22-3.7c10.8,0,22,1.4,22,3.7
					C151.3,84.7,140.1,86.1,129.3,86.1z M129.3,78.9c-13.1,0-21.8,1.8-21.8,3.5c0,1.7,8.8,3.5,21.8,3.5c13,0,21.8-1.8,21.8-3.5
					C151.1,80.7,142.3,78.9,129.3,78.9z"/>
			</g>
			<g>
				<g>
					<ellipse fill="#FEBC27" cx="129.3" cy="82.4" rx="18" ry="3"/>
				</g>
				<image width="151" height="25" xlink:href="87E8FCCBAE982C16.png"  transform="matrix(0.24 0 0 0.24 111.213 79.4167)">
				</image>
			</g>
		</g>
	</g>
	<g display="inline">
		<g>
			<path fill="#FEBC27" d="M106.5,77.1v5.7c0,0,4.1,3.3,21.9,3.3c0,0,13.6,0.4,21.9-3.5v-5.5c0,0-5.3,2.4-21.9,2.4
				C128.5,79.5,114.1,79.5,106.5,77.1z"/>
			<path fill="#ED8F00" d="M129.4,86.2c-0.6,0-1,0-1,0c-17.7,0-21.8-3.2-22-3.3l0,0v-5.9l0.1,0c7.5,2.4,21.8,2.4,21.9,2.4
				c16.4,0,21.8-2.4,21.9-2.4l0.2-0.1v5.8l-0.1,0C143.4,86,132.6,86.2,129.4,86.2z M106.6,82.7c0.5,0.3,5.1,3.3,21.8,3.3
				c0,0,0.4,0,1,0c3.1,0,13.9-0.3,20.8-3.5v-5.3c-1,0.4-6.9,2.3-21.8,2.3c-0.1,0-14.3,0-21.8-2.4V82.7z"/>
		</g>
		<image width="224" height="39" xlink:href="87E8FCCBAE982C19.png"  transform="matrix(0.24 0 0 0.24 101.0897 76.8472)">
		</image>
		<g>
			<g>
				<ellipse fill="#FEDB61" cx="128.5" cy="77.1" rx="21.9" ry="3.6"/>
				<path fill="#ED8F00" d="M128.5,80.8c-10.8,0-22-1.4-22-3.7c0-2.3,11.2-3.7,22-3.7c10.8,0,22,1.4,22,3.7
					C150.5,79.4,139.3,80.8,128.5,80.8z M128.5,73.6c-13.1,0-21.8,1.8-21.8,3.5c0,1.7,8.8,3.5,21.8,3.5c13,0,21.8-1.8,21.8-3.5
					C150.3,75.4,141.5,73.6,128.5,73.6z"/>
			</g>
			<g>
				<g>
					<ellipse fill="#FEBC27" cx="128.5" cy="77.1" rx="18" ry="3"/>
				</g>
				<image width="151" height="25" xlink:href="87E8FCCBAE982C1A.png"  transform="matrix(0.24 0 0 0.24 110.4231 74.1115)">
				</image>
			</g>
		</g>
	</g>
	<g display="inline">
		<g>
			<path fill="#FEBC27" d="M107.3,72.7v5.7c0,0,4.1,3.3,21.9,3.3c0,0,13.6,0.4,21.9-3.5v-5.5c0,0-5.3,2.4-21.9,2.4
				C129.3,75.1,114.9,75.1,107.3,72.7z"/>
			<path fill="#ED8F00" d="M130.2,81.9c-0.6,0-1,0-1,0c-17.7,0-21.8-3.2-22-3.3l0,0v-5.9l0.1,0c7.5,2.4,21.8,2.4,21.9,2.4
				c16.4,0,21.8-2.4,21.9-2.4l0.2-0.1v5.8l-0.1,0C144.2,81.6,133.4,81.9,130.2,81.9z M107.4,78.4c0.5,0.3,5.1,3.3,21.8,3.3
				c0,0,0.4,0,1,0c3.1,0,13.9-0.3,20.8-3.5v-5.3c-1,0.4-6.9,2.3-21.8,2.3c-0.1,0-14.3,0-21.8-2.4V78.4z"/>
		</g>
		<image width="224" height="39" xlink:href="87E8FCCBAE982C18.png"  transform="matrix(0.24 0 0 0.24 101.8796 72.4893)">
		</image>
		<g>
			<g>
				<ellipse fill="#FEDB61" cx="129.3" cy="72.7" rx="21.9" ry="3.6"/>
				<path fill="#ED8F00" d="M129.3,76.4c-10.8,0-22-1.4-22-3.7s11.2-3.7,22-3.7c10.8,0,22,1.4,22,3.7S140.1,76.4,129.3,76.4z
					 M129.3,69.2c-13.1,0-21.8,1.8-21.8,3.5c0,1.7,8.8,3.5,21.8,3.5c13,0,21.8-1.8,21.8-3.5C151.1,71,142.3,69.2,129.3,69.2z"/>
			</g>
			<g>
				<g>
					<ellipse fill="#FEBC27" cx="129.3" cy="72.7" rx="18" ry="3"/>
				</g>
				<image width="151" height="25" xlink:href="A4AC89703BFE5DCD.png"  transform="matrix(0.24 0 0 0.24 111.213 69.7536)">
				</image>
			</g>
		</g>
	</g>
	<g display="inline">
		<g>
			<path fill="#FEBC27" d="M108.3,67.8v5.7c0,0,4.1,3.3,21.9,3.3c0,0,13.6,0.4,21.9-3.5v-5.5c0,0-5.3,2.4-21.9,2.4
				C130.2,70.2,115.8,70.2,108.3,67.8z"/>
			<path fill="#ED8F00" d="M131.2,76.9c-0.6,0-1,0-1,0c-17.7,0-21.8-3.2-22-3.3l0,0v-5.9l0.1,0c7.5,2.4,21.8,2.4,21.9,2.4
				c16.4,0,21.8-2.4,21.9-2.4l0.2-0.1v5.8l-0.1,0C145.2,76.7,134.3,76.9,131.2,76.9z M108.4,73.4c0.5,0.3,5.1,3.3,21.8,3.3
				c0,0,0.4,0,1,0c3.1,0,13.9-0.3,20.8-3.5V68c-1,0.4-6.9,2.3-21.8,2.3c-0.1,0-14.3,0-21.8-2.4V73.4z"/>
		</g>
		<image width="224" height="39" xlink:href="A4AC89703BFE5DC3.png"  transform="matrix(0.24 0 0 0.24 102.8269 67.5631)">
		</image>
		<g>
			<g>
				<ellipse fill="#FEDB61" cx="130.2" cy="67.8" rx="21.9" ry="3.6"/>
				<path fill="#ED8F00" d="M130.2,71.5c-10.8,0-22-1.4-22-3.7c0-2.3,11.2-3.7,22-3.7c10.8,0,22,1.4,22,3.7
					C152.2,70.1,141,71.5,130.2,71.5z M130.2,64.3c-13.1,0-21.8,1.8-21.8,3.5c0,1.7,8.8,3.5,21.8,3.5c13,0,21.8-1.8,21.8-3.5
					C152,66.1,143.3,64.3,130.2,64.3z"/>
			</g>
			<g>
				<g>
					<ellipse fill="#FEBC27" cx="130.2" cy="67.8" rx="18" ry="3"/>
				</g>
				<image width="151" height="25" xlink:href="A4AC89703BFE5DC5.png"  transform="matrix(0.24 0 0 0.24 112.1603 64.8273)">
				</image>
			</g>
		</g>
	</g>
	<g display="inline">
		<g>
			<path fill="#FEBC27" d="M107.2,61.8v5.7c0,0,4.1,3.3,21.9,3.3c0,0,13.6,0.4,21.9-3.5v-5.5c0,0-5.3,2.4-21.9,2.4
				C129.1,64.2,114.8,64.2,107.2,61.8z"/>
			<path fill="#ED8F00" d="M130.1,71c-0.6,0-1,0-1,0c-17.7,0-21.8-3.2-22-3.3l0,0v-5.9l0.1,0c7.5,2.4,21.8,2.4,21.9,2.4
				c16.4,0,21.8-2.4,21.9-2.4l0.2-0.1v5.8l-0.1,0C144.1,70.7,133.3,71,130.1,71z M107.3,67.5c0.5,0.3,5.1,3.3,21.8,3.3
				c0,0,0.4,0,1,0c3.1,0,13.9-0.3,20.8-3.5V62c-1,0.4-6.9,2.3-21.8,2.3c-0.1,0-14.3,0-21.8-2.4V67.5z"/>
		</g>
		<image width="224" height="39" xlink:href="A4AC89703BFE5DC7.png"  transform="matrix(0.24 0 0 0.24 101.759 61.5923)">
		</image>
		<g>
			<g>
				<ellipse fill="#FEDB61" cx="129.1" cy="61.8" rx="21.9" ry="3.6"/>
				<path fill="#ED8F00" d="M129.1,65.5c-10.8,0-22-1.4-22-3.7c0-2.3,11.2-3.7,22-3.7c10.8,0,22,1.4,22,3.7
					C151.2,64.1,140,65.5,129.1,65.5z M129.1,58.3c-13.1,0-21.8,1.8-21.8,3.5c0,1.7,8.8,3.5,21.8,3.5c13,0,21.8-1.8,21.8-3.5
					C151,60.1,142.2,58.3,129.1,58.3z"/>
			</g>
			<g>
				<g>
					<ellipse fill="#FEBC27" cx="129.1" cy="61.8" rx="18" ry="3"/>
				</g>
				<image width="151" height="25" xlink:href="A4AC89703BFE5DC4.png"  transform="matrix(0.24 0 0 0.24 111.0924 58.8566)">
				</image>
			</g>
		</g>
	</g>
</g>
<g id="objects">
	<g>
		<g>
			<path fill="#9C9B9B" d="M137.7,96.1l-11.5,0c-0.5,0-0.9,0.3-0.9,0.7l0,0.5c0,0.4,0.4,0.7,0.9,0.7l11.5,0c0.5,0,0.9-0.3,0.9-0.7
				v-0.5C138.6,96.4,138.2,96.1,137.7,96.1z"/>
			<path fill="#9C9B9B" d="M137.7,98.2l-11.5,0c-0.5,0-0.9,0.3-0.9,0.7l0,0.5c0,0.4,0.4,0.7,0.9,0.7h11.5c0.5,0,0.9-0.3,0.9-0.7
				l0-0.5C138.6,98.5,138.2,98.2,137.7,98.2z"/>
			<path fill="#9C9B9B" d="M137.7,100.4l-11.5,0c-0.5,0-0.9,0.3-0.9,0.7l0,0.5c0,0.4,0.4,0.7,0.9,0.7l11.5,0c0.5,0,0.9-0.3,0.9-0.7
				l0-0.5C138.6,100.7,138.2,100.4,137.7,100.4z"/>
			<path fill="#9C9B9B" d="M127.7,102.5l8.6,0c0,1.4-2.3,2.4-4.3,2.4C130,104.9,127.7,104,127.7,102.5z"/>
		</g>
		<path fill="#FFDD00" d="M123.4,65.2c0,0,3.5-3.5,8.2-3.8c0,0,8-0.8,12.2,7.6c0,0,0.8,5.9,0,8.8c0,0-3.5,7-3.5,7.7l-2.2,6.3
			c0,0-0.3,2.9-1.5,2.9l-8.8,0c0,0-1.6,0-1.6-2.4c0,0-1.8-6.3-2.8-7.9c0,0-3.4-7.3-3.4-9.5C120,74.8,118.6,70.6,123.4,65.2z"/>
		<g>
			<path fill="#033757" d="M137.8,93.8c-0.6-1.1-1-2.4-1.4-3.6c-0.6-1.8-1.2-3.7-1.5-5.5c-0.3-1.6-0.6-3.3-0.2-4.9
				c0.1-0.5,0.4-1.1,0.9-1.3c0.9-0.5,1.2,0.2,1.1,1c-0.1,0.8-0.5,1.7-1.2,2.1c-0.6,0.4-1.5,0.4-2.1,0.4c-0.8-0.1-1.6-0.3-2.2-0.9
				c-0.6-0.6-0.5-1.7,0-2.4c0.5-0.6,1.1-0.3,1.2,0.3c0.2,1-0.4,2.2-1.1,2.9c-0.7,0.7-1.6,0.8-2.3,0.2c-0.8-0.7-1.2-2.2-1-3.2
				c0-0.1,0-0.1,0.1-0.2c0.1-0.2-0.2,0-0.1,0c0.2,0,0.3,0.2,0.4,0.3c0.3,0.3,0.5,0.8,0.7,1.2c0.5,1.5,0.6,3.2,0.6,4.8
				c0,3.2-0.5,6.3-0.6,9.4c0,0.1,0.6,0,0.6-0.2c0.1-3.2,0.7-6.4,0.6-9.6c0-1.6-0.1-3.2-0.6-4.7c-0.2-0.6-0.7-1.5-1.4-1.5
				c-0.7-0.1-1,0.5-1,1.2c0,1,0.4,2.2,1.2,2.9c1.4,1.1,3.2-0.1,4-1.4c0.4-0.7,0.9-1.9,0.4-2.7c-0.3-0.5-0.9-0.6-1.4-0.4
				c-1.5,0.4-1.8,2.5-0.7,3.5c1.1,1,3.1,0.9,4.4,0.5c1.3-0.4,2.3-1.9,2.1-3.3c-0.2-1.4-2.3-0.4-2.8,0.3c-0.8,1.1-0.6,2.8-0.5,4.1
				c0.2,1.9,0.7,3.8,1.2,5.6c0.5,1.5,1,3.1,1.6,4.5c0.1,0.3,0.2,0.6,0.4,0.8C137.3,94.2,137.9,94,137.8,93.8L137.8,93.8z"/>
		</g>
		<g>
			<path fill="#fff" d="M132,60.9c-7.1,0-12.8,5.7-12.8,12.8c0,2.3,0.7,4.5,1.7,6.4c3.2,5.7,4,8.9,4.5,12c0.4,2.6,1,3.2,3,3.2
				c0.8,0,2.2,0,3.6,0c1.4,0,2.8,0,3.6,0c2,0,2.6-0.6,3-3.2c0.5-3.1,1.3-6.3,4.5-12c1.1-1.9,1.7-4.1,1.7-6.4
				C144.8,66.7,139.1,60.9,132,60.9z M142.1,79.6c-3.1,5.5-4,8.8-4.6,12.3c-0.1,0.4-0.3,1.6-0.6,2c-0.1,0.1-0.4,0.3-1.2,0.3l-3.6,0
				l-3.6,0c-0.9,0-1.1-0.1-1.2-0.3c-0.4-0.4-0.6-1.6-0.6-2c-0.6-3.5-1.6-6.8-4.6-12.3c-1-1.9-1.6-3.8-1.6-5.8
				c0-6.4,5.2-11.7,11.7-11.7c6.4,0,11.7,5.2,11.7,11.7C143.7,75.8,143.1,77.7,142.1,79.6z"/>
		</g>
		<path fill="#fff" d="M125.2,70.3c-0.5,0.4-2.8,2.6-0.3,6.6c0.2,0.3,0.1,0.6-0.2,0.8c-0.1,0.1-0.2,0.1-0.3,0.1
			c-0.2,0-0.4-0.1-0.5-0.3c-3.1-4.8-0.1-7.6,0.6-8.1c0.3-0.2,0.6-0.2,0.8,0.1C125.5,69.7,125.4,70.1,125.2,70.3z"/>
		<g>
			<path fill="#F8AB0F" stroke="#F8AB0F" stroke-width="3" stroke-miterlimit="10" d="M151.1,72.7h-4.2c-0.3,0-0.5,0.2-0.5,0.5
				c0,0.3,0.2,0.5,0.5,0.5l4.2,0c0.3,0,0.5-0.2,0.5-0.5C151.6,72.9,151.4,72.7,151.1,72.7z"/>
			<path fill="#F8AB0F" stroke="#F8AB0F" stroke-width="3" stroke-miterlimit="10" d="M145.6,66.6c0.1,0,0.2,0,0.2-0.1l3.6-2.1
				c0.2-0.1,0.3-0.4,0.2-0.6c-0.1-0.2-0.4-0.3-0.6-0.2l-3.6,2.1c-0.2,0.1-0.3,0.4-0.2,0.6C145.3,66.5,145.4,66.6,145.6,66.6z"/>
			<path fill="#F8AB0F" stroke="#F8AB0F" stroke-width="3" stroke-miterlimit="10" d="M139.8,60.4c0.1,0,0.2,0.1,0.2,0.1
				c0.2,0,0.3-0.1,0.4-0.2l2.1-3.6c0.1-0.2,0-0.5-0.2-0.6c-0.2-0.1-0.5,0-0.6,0.2l-2.1,3.6C139.5,60,139.6,60.2,139.8,60.4z"/>
			<path fill="#F8AB0F" stroke="#F8AB0F" stroke-width="3" stroke-miterlimit="10" d="M117.8,65.3l-3.6-2.1
				c-0.2-0.1-0.5-0.1-0.6,0.2c-0.1,0.2-0.1,0.5,0.2,0.6l3.6,2.1c0.1,0,0.2,0.1,0.2,0.1c0.2,0,0.3-0.1,0.4-0.2
				C118.1,65.8,118,65.5,117.8,65.3z"/>
			<path fill="#F8AB0F" stroke="#F8AB0F" stroke-width="3" stroke-miterlimit="10" d="M149.4,81.5l-3.6-2.1
				c-0.2-0.1-0.5-0.1-0.6,0.2c-0.1,0.2-0.1,0.5,0.2,0.6l3.6,2.1c0.1,0,0.2,0.1,0.2,0.1c0.2,0,0.3-0.1,0.4-0.2
				C149.7,81.9,149.7,81.6,149.4,81.5z"/>
			<path fill="#F8AB0F" stroke="#F8AB0F" stroke-width="3" stroke-miterlimit="10" d="M117.3,79.8l-3.6,2.1
				c-0.2,0.1-0.3,0.4-0.2,0.6c0.1,0.1,0.2,0.2,0.4,0.2c0.1,0,0.2,0,0.2-0.1l3.6-2.1c0.2-0.1,0.3-0.4,0.2-0.6
				C117.8,79.7,117.5,79.7,117.3,79.8z"/>
			<path fill="#F8AB0F" stroke="#F8AB0F" stroke-width="3" stroke-miterlimit="10" d="M122.6,59.8c0.1,0.1,0.2,0.2,0.4,0.2
				c0.1,0,0.2,0,0.2-0.1c0.2-0.1,0.3-0.4,0.2-0.6l-2.1-3.6c-0.1-0.2-0.4-0.3-0.6-0.2c-0.2,0.1-0.3,0.4-0.2,0.6L122.6,59.8z"/>
			<path fill="#F8AB0F" stroke="#F8AB0F" stroke-width="3" stroke-miterlimit="10" d="M131.7,58.3c0.3,0,0.5-0.2,0.5-0.5l0-4.2
				c0-0.3-0.2-0.5-0.5-0.5c-0.3,0-0.5,0.2-0.5,0.5l0,4.2C131.3,58.1,131.5,58.3,131.7,58.3z"/>
			<path fill="#F8AB0F" stroke="#F8AB0F" stroke-width="3" stroke-miterlimit="10" d="M117.5,73.2c0-0.3-0.2-0.5-0.5-0.5l-4.2,0
				c-0.3,0-0.5,0.2-0.5,0.5c0,0.3,0.2,0.5,0.5,0.5l4.2,0C117.3,73.6,117.5,73.4,117.5,73.2z"/>
		</g>
	</g>
</g>
</svg>
