<?xml version="1.0" encoding="utf-8"?>
<!-- Generator: Adobe Illustrator 18.0.0, SVG Export Plug-In . SVG Version: 6.00 Build 0)  -->
<!DOCTYPE svg PUBLIC "-//W3C//DTD SVG 1.1//EN" "http://www.w3.org/Graphics/SVG/1.1/DTD/svg11.dtd">
<svg version="1.1" id="Layer_1" xmlns="http://www.w3.org/2000/svg" xmlns:xlink="http://www.w3.org/1999/xlink" x="0px" y="0px"
	 width="270px" height="60px" viewBox="156.5 104 270 60" enable-background="new 156.5 104 270 60" xml:space="preserve">
<g id="_x23_414241ff">
	<path fill="#414241" d="M160.6,111.5c3.1,0,6.2,0,9.3,0c-0.1,6.1,0,12.2,0,18.3c2.1,0,4.2,0,6.3,0c0-6.1,0-12.2,0-18.3
		c3.1,0,6.3,0,9.4,0c0,15.1,0,30.2,0,45.3c-3.1,0-6.2,0-9.4-0.1c0-6.7,0-13.4,0-20.1c-2.1,0-4.2,0-6.3,0c0,6.7,0,13.4,0,20.1
		c-3.1,0-6.2,0-9.3,0C160.6,141.7,160.6,126.6,160.6,111.5z"/>
	<path fill="#414241" d="M219.6,117.4c3.6-9.1,19.3-9.3,22.9,0c1.6,3.9,1.3,8.2,1.4,12.4c-3,0-6.1,0-9.2,0
		c-0.3-4.2,1.2-10.3-3.7-12.4c-2.2,1.1-3.8,3.1-3.7,5.6c-0.1,7.6-0.2,15.3,0.1,23c-0.2,2.9,3.5,6.2,5.8,3.4
		c2.2-3.2,1.2-7.5,1.4-11.2c3,0,6.1,0,9.1,0c-0.1,4.6,0.2,9.5-2,13.8c-4.3,8.4-19,7.7-22.3-1.2c-2-5.3-1.5-11.1-1.6-16.6
		C218,128.5,217.4,122.7,219.6,117.4z"/>
	<path fill="#414241" d="M247.6,111.5c3.1,0,6.2,0,9.3,0c-0.1,5.5,0,10.9,0,16.4c2.4-5.4,4.5-10.9,6.8-16.4c3.5,0,7,0,10.6,0
		c-3.1,6.1-6.2,12.3-9.3,18.5c3.2,8.9,6.6,17.8,9.8,26.7c-3.3,0-6.5,0-9.8,0c-2.2-6.8-4.3-13.6-6.8-20.2c-2.6,6.4-0.9,13.5-1.4,20.2
		c-3.1,0-6.2,0-9.3,0C247.6,141.7,247.6,126.6,247.6,111.5z"/>
	<path fill="#414241" d="M198,111.6c2.8,0,5.5,0,8.3,0c3.2,15.1,6.5,30.1,9.7,45.2c-3.1,0.1-6.2,0-9.3,0c-0.6-3.2-1.2-6.3-1.8-9.5
		c-1.9,0-3.8-0.1-5.7-0.1c-0.6,3.2-1.2,6.4-1.8,9.7c-3.1,0-6.2,0-9.3,0C191.5,141.7,194.8,126.7,198,111.6 M200,141.2
		c1.5,0,2.9,0,4.4,0c-0.9-5-1.2-10.2-2.3-15.2C201.3,131.1,200.8,136.2,200,141.2z"/>
	<path fill="#414241" d="M277.1,111.5c6.3,0,12.7,0,19,0c0,2.1,0,4.2,0,6.3c-3.2,0-6.4,0.1-9.7,0.1c0,4.1,0,8.1,0,12.2
		c2.2,0,4.5,0,6.8,0c0,2.2,0,4.4,0,6.5c-2.3,0-4.5,0-6.8,0c0,4.5,0,9.1,0,13.6c3.2,0,6.4,0,9.6,0c0,2.2,0.1,4.3,0.1,6.5
		c-6.3,0.1-12.7,0-19,0C277.1,141.7,277.2,126.6,277.1,111.5z"/>
	<path fill="#414241" d="M299.6,111.5c7.1,0.5,15.5-1.7,21.5,3.4c4.9,5.7,4.2,16.7-3,20.2c2.2,7.2,4.6,14.4,7,21.6
		c-3.2,0.1-6.5,0.1-9.7,0c-1.5-6-3-11.9-4.4-17.9c-0.2-1.4-0.8-2.6-1.9-3.4c-0.3,7.1-0.1,14.2-0.1,21.4c-3.1,0-6.2,0-9.3,0
		C299.6,141.7,299.6,126.6,299.6,111.5 M309,118.2c-0.2,4-0.1,8.1-0.1,12.1C316.7,132.2,317,116.4,309,118.2z"/>
</g>
<g id="_x23_56b255ff">
	<path fill="#56B255" d="M328.5,113.5c5.1-0.1,10.2,0,15.4,0c0,1.1,0,2.2,0,3.4c-3.7,0-7.5,0-11.2,0c0,5.3,0,10.6,0,15.9
		c2.7,0,5.4,0,8,0c0,0.8,0,2.4-0.1,3.2c-2.6,0-5.3,0-7.9,0c-0.1,7,0,14,0,20.9c-1.4,0-2.8,0-4.1,0
		C328.4,142.4,328.4,127.9,328.5,113.5z"/>
	<path fill="#56B255" d="M374.8,113.6c1.1-0.1,2.2-0.2,3.4-0.2c4.4,11.1,8.9,22.2,13.2,33.4c0.2-11.1,0.1-22.2,0.1-33.3
		c1.2,0,2.3,0,3.5-0.1c0.1,14.4,0,28.9,0,43.3c-0.8,0-2.4,0.1-3.2,0.1c-4.4-10.9-8.9-21.8-13.3-32.6c-0.1,10.9,0,21.7,0,32.6
		c-1.2,0-2.5-0.1-3.7-0.1C374.9,142.4,375,128,374.8,113.6z"/>
	<path fill="#56B255" d="M402.1,113.4c4.4,0.2,8.8-0.3,13.2,0.4c4.7,0.9,7.5,5.7,7.5,10.2c0.2,7.4,0.1,14.7,0,22.1
		c0,4.2-2.2,9-6.5,10.2c-4.7,1.2-9.6,0.5-14.4,0.6C402,142.3,401.7,127.9,402.1,113.4 M406.1,116.8c0,12.2,0,24.4,0,36.6
		c4-0.1,9.7,1,11.8-3.5c1.8-5.4,0.5-11.2,0.9-16.8c-0.3-4.7,1.1-10-1.8-14.1C414.3,115.8,409.7,117,406.1,116.8z"/>
	<path fill="#56B255" d="M346.2,113.5c1.4,0,2.7-0.1,4.1-0.1c0,10.5,0,21.1,0,31.6c0.1,2.2-0.1,4.6,1.1,6.6c3.4,4.6,13.1,3,12.8-3.6
		c0.2-11.5,0.1-23,0-34.5c1.4,0,2.8-0.1,4.2-0.1c-0.1,10.8,0,21.7,0,32.5c0.1,4.1-1.3,9.1-5.6,10.7c-4,1.3-8.8,1.4-12.5-0.8
		c-3-1.8-4.1-5.4-4.1-8.7C346.2,135.9,346.3,124.7,346.2,113.5z"/>
</g>
</svg>
